fd_2_states
version=1
nRows=23
nColumns=17
inDegrees=yes

# SIMM Motion File Header:
name fd_2_states
datacolumns 17
datarows 23
otherdata 1
range 0.030000 0.054283
endheader
time	/jointset/r_shoulder/r_shoulder_elev/value	/jointset/r_shoulder/r_shoulder_elev/speed	/jointset/r_elbow/r_elbow_flex/value	/jointset/r_elbow/r_elbow_flex/speed	/forceset/TRIlong/activation	/forceset/TRIlong/fiber_length	/forceset/TRIlat/activation	/forceset/TRIlat/fiber_length	/forceset/TRImed/activation	/forceset/TRImed/fiber_length	/forceset/BIClong/activation	/forceset/BIClong/fiber_length	/forceset/BICshort/activation	/forceset/BICshort/fiber_length	/forceset/BRA/activation	/forceset/BRA/fiber_length
      0.030000	      0.000000	      0.000000	      4.200010	    140.000003	      0.028970	      0.137756	      0.020000	      0.071844	      0.020000	      0.066908	      0.020000	      0.147824	      0.020000	      0.147170	      0.046610	      0.092316
      0.030061	      0.000000	      0.000453	      4.208497	    139.998889	      0.028963	      0.137759	      0.020000	      0.071847	      0.020000	      0.066911	      0.020020	      0.147822	      0.020661	      0.147168	      0.046754	      0.092314
      0.030121	      0.000000	      0.000908	      4.216984	    139.997757	      0.028956	      0.137762	      0.020000	      0.071850	      0.020000	      0.066914	      0.020046	      0.147821	      0.021531	      0.147166	      0.046752	      0.092312
      0.030424	      0.000001	      0.003153	      4.259418	    139.992023	      0.028919	      0.137778	      0.020000	      0.071866	      0.020000	      0.066930	      0.020173	      0.147813	      0.025706	      0.147153	      0.046744	      0.092301
      0.031670	      0.000009	      0.008409	      4.433847	    139.978970	      0.028769	      0.137843	      0.020000	      0.071930	      0.020000	      0.066994	      0.020624	      0.147778	      0.040242	      0.147064	      0.046710	      0.092256
      0.034666	     -0.000009	     -0.036133	      4.853253	    140.122406	      0.028420	      0.138004	      0.020000	      0.072084	      0.020000	      0.067147	      0.021359	      0.147693	      0.063315	      0.146783	      0.046631	      0.092150
      0.037661	     -0.000307	     -0.179484	      5.273545	    140.572800	      0.028085	      0.138166	      0.020000	      0.072240	      0.020000	      0.067302	      0.021777	      0.147606	      0.076608	      0.146522	      0.046556	      0.092044
      0.038885	     -0.000578	     -0.266100	      5.445759	    140.843249	      0.027952	      0.138233	      0.020000	      0.072304	      0.020000	      0.067366	      0.021890	      0.147571	      0.080344	      0.146426	      0.046526	      0.092001
      0.039509	     -0.000760	     -0.316065	      5.533790	    140.998883	      0.027885	      0.138267	      0.020000	      0.072337	      0.020000	      0.067398	      0.021939	      0.147553	      0.081973	      0.146379	      0.046511	      0.091979
      0.039971	     -0.000914	     -0.355346	      5.598847	    141.121060	      0.027836	      0.138292	      0.020000	      0.072361	      0.020000	      0.067422	      0.021971	      0.147540	      0.083072	      0.146346	      0.046500	      0.091963
      0.040052	     -0.000944	     -0.362521	      5.610392	    141.143359	      0.027827	      0.138296	      0.020000	      0.072365	      0.020000	      0.067427	      0.022091	      0.147537	      0.083172	      0.146340	      0.046658	      0.091960
      0.040134	     -0.000974	     -0.369763	      5.621939	    141.165863	      0.027818	      0.138301	      0.020000	      0.072370	      0.020000	      0.067431	      0.022575	      0.147535	      0.083144	      0.146334	      0.047381	      0.091957
      0.040216	     -0.001004	     -0.377089	      5.633488	    141.188624	      0.027810	      0.138305	      0.020000	      0.072374	      0.020000	      0.067435	      0.023075	      0.147532	      0.083113	      0.146329	      0.048129	      0.091954
      0.040625	     -0.001166	     -0.415593	      5.691263	    141.308179	      0.027767	      0.138328	      0.020000	      0.072395	      0.020000	      0.067457	      0.025452	      0.147517	      0.082960	      0.146301	      0.051693	      0.091937
      0.042670	     -0.002274	     -0.696893	      5.981059	    142.179047	      0.027554	      0.138440	      0.020000	      0.072504	      0.020000	      0.067564	      0.034829	      0.147419	      0.082211	      0.146177	      0.065874	      0.091838
      0.044715	     -0.004153	     -1.174602	      6.273236	    143.651508	      0.027348	      0.138552	      0.020000	      0.072613	      0.020000	      0.067673	      0.041163	      0.147315	      0.081487	      0.146073	      0.075647	      0.091733
      0.047320	     -0.008301	     -2.057558	      6.650749	    146.362277	      0.027094	      0.138697	      0.020000	      0.072755	      0.020000	      0.067814	      0.046433	      0.147191	      0.080599	      0.145958	      0.084006	      0.091605
      0.049925	     -0.015079	     -3.180110	      7.036321	    149.797708	      0.026849	      0.138843	      0.020000	      0.072900	      0.020000	      0.067959	      0.049730	      0.147076	      0.079748	      0.145855	      0.089427	      0.091485
      0.050065	     -0.015530	     -3.245740	      7.057330	    149.998289	      0.026836	      0.138851	      0.020000	      0.072908	      0.020000	      0.067967	      0.049988	      0.147070	      0.079748	      0.145850	      0.089618	      0.091479
      0.050205	     -0.015989	     -3.311823	      7.078367	    150.200230	      0.026823	      0.138859	      0.020000	      0.072916	      0.020000	      0.067975	      0.050921	      0.147064	      0.080059	      0.145845	      0.089599	      0.091473
      0.050375	     -0.016560	     -3.392690	      7.103963	    150.447335	      0.026807	      0.138868	      0.020000	      0.072925	      0.020000	      0.067984	      0.052043	      0.147057	      0.080447	      0.145838	      0.089575	      0.091465
      0.051227	     -0.019623	     -3.805660	      7.232581	    151.709748	      0.026729	      0.138917	      0.020000	      0.072974	      0.020000	      0.068033	      0.057145	      0.147016	      0.082234	      0.145804	      0.089456	      0.091429
      0.054283	     -0.033618	     -5.370976	      7.703469	    156.520930	      0.026457	      0.139092	      0.020000	      0.073152	      0.020000	      0.068210	      0.070131	      0.146850	      0.086932	      0.145674	      0.089043	      0.091305
